<?xml version="1.0" encoding="UTF-8" standalone="no"?>
<!DOCTYPE svg PUBLIC "-//W3C//DTD SVG 1.1//EN" "http://www.w3.org/Graphics/SVG/1.1/DTD/svg11.dtd">
<svg width="100%" height="100%" viewBox="0 0 196 97" version="1.1" xmlns="http://www.w3.org/2000/svg" xmlns:xlink="http://www.w3.org/1999/xlink" xml:space="preserve" xmlns:serif="http://www.serif.com/" style="fill-rule:evenodd;clip-rule:evenodd;stroke-linejoin:round;stroke-miterlimit:2;">
    <g>
        <g>
            <g id="A">
                <path d="M23.69,0C36.677,0.005 47.36,10.693 47.36,23.68C47.36,36.67 36.67,47.36 23.68,47.36C10.69,47.36 0,36.67 0,23.68C0.005,10.688 10.698,-0 23.69,0Z" style="fill:rgb(40,0,0);fill-rule:nonzero;"/>
            </g>
        </g>
        <g>
            <g id="B">
                <path d="M73.08,0C86.076,-0 96.77,10.694 96.77,23.69C96.77,36.686 86.076,47.38 73.08,47.38C60.084,47.38 49.39,36.686 49.39,23.69C49.395,10.696 60.086,0.005 73.08,0Z" style="fill:rgb(40,0,0);fill-rule:nonzero;"/>
            </g>
        </g>
        <g>
            <g id="Y">
                <path d="M171.87,0C184.866,-0 195.56,10.694 195.56,23.69C195.56,36.686 184.866,47.38 171.87,47.38C158.874,47.38 148.18,36.686 148.18,23.69C148.18,10.694 158.874,0 171.87,0Z" style="fill:rgb(40,0,0);fill-rule:nonzero;"/>
            </g>
        </g>
        <g>
            <g id="X">
                <path d="M122.47,0C122.473,-0 122.477,-0 122.48,-0C135.476,-0 146.17,10.694 146.17,23.69C146.17,36.686 135.476,47.38 122.48,47.38C109.484,47.38 98.79,36.686 98.79,23.69C98.795,10.7 109.48,0.011 122.47,-0Z" style="fill:rgb(40,0,0);fill-rule:nonzero;"/>
            </g>
        </g>
    </g>
    <g transform="matrix(3.01731,0,0,3.01731,-142.008,-54.3124)">
        <g transform="matrix(12,0,0,12,59.6283,30.0516)">
        </g>
        <text x="50.196px" y="30.052px" style="font-family:'Montserrat-ExtraBold', 'Montserrat';font-weight:800;font-size:12px;fill:rgb(184,0,0);">A</text>
        <path d="M56.441,28.751L53.336,28.751L52.676,30.383L49.52,30.383L53.52,21.32L56.292,21.32L60.306,30.383L57.101,30.383L56.441,28.751ZM56.664,28.42L57.324,30.052L59.796,30.052L56.076,21.652L53.736,21.652L50.028,30.052L52.452,30.052L53.112,28.42L56.664,28.42ZM55.968,26.668L53.808,26.668L54.888,23.98L55.968,26.668ZM55.478,26.336L54.888,24.869C54.888,24.869 54.299,26.336 54.299,26.336L55.478,26.336Z" style="fill:rgb(74,0,0);"/>
    </g>
    <g transform="matrix(3.01731,0,0,3.01731,-92.9696,-54.3124)">
        <g transform="matrix(12,0,0,12,59.4243,30.0516)">
        </g>
        <text x="50.196px" y="30.052px" style="font-family:'Montserrat-ExtraBold', 'Montserrat';font-weight:800;font-size:12px;fill:rgb(184,0,0);">B</text>
        <path d="M58.163,25.619C58.45,25.789 58.69,26.002 58.884,26.256C59.198,26.668 59.36,27.164 59.36,27.748C59.36,28.603 59.014,29.261 58.326,29.726C57.69,30.156 56.775,30.383 55.572,30.383L50.705,30.383L50.705,21.32L55.332,21.32C56.49,21.32 57.367,21.548 57.972,21.975C58.626,22.438 58.952,23.062 58.952,23.848C58.952,24.313 58.836,24.729 58.608,25.096C58.487,25.292 58.339,25.466 58.163,25.619ZM57.492,25.672C57.852,25.488 58.13,25.238 58.326,24.922C58.522,24.606 58.62,24.248 58.62,23.848C58.62,23.176 58.34,22.642 57.78,22.246C57.22,21.85 56.404,21.652 55.332,21.652L51.036,21.652L51.036,30.052L55.572,30.052C56.692,30.052 57.548,29.852 58.14,29.452C58.732,29.052 59.028,28.484 59.028,27.748C59.028,27.244 58.892,26.814 58.62,26.458C58.348,26.102 57.972,25.84 57.492,25.672ZM53.388,23.368L55.02,23.368C55.82,23.368 56.22,23.636 56.22,24.172C56.22,24.716 55.82,24.988 55.02,24.988L53.388,24.988L53.388,23.368ZM53.72,23.699L53.72,24.656L55.02,24.656C55.569,24.656 55.889,24.544 55.889,24.172C55.889,23.805 55.568,23.699 55.02,23.699L53.72,23.699ZM55.38,28.336L53.388,28.336L53.388,26.632L55.38,26.632C56.212,26.632 56.628,26.916 56.628,27.484C56.628,28.052 56.212,28.336 55.38,28.336ZM55.38,28.004C55.961,28.004 56.297,27.88 56.297,27.484C56.297,27.087 55.961,26.963 55.38,26.963L53.72,26.963L53.72,28.004L55.38,28.004Z" style="fill:rgb(74,0,0);"/>
    </g>
    <g transform="matrix(3.01731,0,0,3.01731,-42.3385,-54.3224)">
        <g transform="matrix(12,0,0,12,59.0403,30.0516)">
        </g>
        <text x="50.196px" y="30.052px" style="font-family:'Montserrat-ExtraBold', 'Montserrat';font-weight:800;font-size:12px;fill:rgb(184,0,0);">X</text>
        <path d="M54.602,28.047L53.063,30.383L49.525,30.383L52.825,25.802L49.665,21.32L53.154,21.32C53.154,21.32 54.658,23.491 54.658,23.491L56.141,21.32L59.532,21.32L56.365,25.708L59.722,30.383L56.163,30.383L54.602,28.047ZM56.34,30.052L59.076,30.052L55.956,25.708L58.884,21.652L56.316,21.652L54.66,24.076L52.98,21.652L50.304,21.652L53.232,25.804L50.172,30.052L52.884,30.052L54.6,27.448L56.34,30.052Z" style="fill:rgb(74,0,0);"/>
    </g>
    <g transform="matrix(3.01731,0,0,3.01731,7.86615,-54.3224)">
        <g transform="matrix(12,0,0,12,58.5123,30.0516)">
        </g>
        <text x="50.196px" y="30.052px" style="font-family:'Montserrat-ExtraBold', 'Montserrat';font-weight:800;font-size:12px;fill:rgb(184,0,0);">Y</text>
        <path d="M55.868,27.131L55.868,30.383L52.829,30.383L52.829,27.095L49.372,21.32L52.652,21.32L54.456,24.341L56.26,21.32L59.336,21.32L55.868,27.131ZM55.536,27.04L58.752,21.652L56.448,21.652L54.456,24.988L52.464,21.652L49.956,21.652L53.16,27.004L53.16,30.052L55.536,30.052L55.536,27.04Z" style="fill:rgb(74,0,0);"/>
    </g>
    <g>
        <g>
            <g id="A-2">
                <path d="M23.69,49.38C36.677,49.385 47.36,60.073 47.36,73.06C47.36,86.05 36.67,96.74 23.68,96.74C10.69,96.74 0,86.05 0,73.06L-0,73.06C-0,60.07 10.69,49.38 23.68,49.38C23.683,49.38 23.687,49.38 23.69,49.38Z" style="fill:rgb(255,99,99);fill-rule:nonzero;"/>
            </g>
        </g>
        <g>
            <g id="B-2">
                <path d="M73.08,49.37C86.076,49.37 96.77,60.064 96.77,73.06C96.77,86.056 86.076,96.75 73.08,96.75C60.084,96.75 49.39,86.056 49.39,73.06C49.395,60.066 60.086,49.375 73.08,49.37Z" style="fill:rgb(255,99,99);fill-rule:nonzero;"/>
            </g>
        </g>
        <g>
            <g id="Y-2">
                <path d="M171.87,49.37C184.866,49.37 195.56,60.064 195.56,73.06C195.56,86.056 184.866,96.75 171.87,96.75C158.874,96.75 148.18,86.056 148.18,73.06C148.185,60.066 158.876,49.375 171.87,49.37Z" style="fill:rgb(255,99,99);fill-rule:nonzero;"/>
            </g>
        </g>
        <g>
            <g id="X-2">
                <path d="M122.47,49.37C122.473,49.37 122.477,49.37 122.48,49.37C135.476,49.37 146.17,60.064 146.17,73.06C146.17,86.056 135.476,96.75 122.48,96.75C109.484,96.75 98.79,86.056 98.79,73.06C98.795,60.07 109.48,49.381 122.47,49.37Z" style="fill:rgb(255,99,99);fill-rule:nonzero;"/>
            </g>
        </g>
        <g transform="matrix(3.01731,0,0,3.01731,-142.008,-4.94236)">
            <g transform="matrix(12,0,0,12,59.6283,30.0516)">
            </g>
            <text x="50.196px" y="30.052px" style="font-family:'Montserrat-ExtraBold', 'Montserrat';font-weight:800;font-size:12px;fill:rgb(255,205,205);">A</text>
            <path d="M56.441,28.751L53.336,28.751L52.676,30.383L49.52,30.383L53.52,21.32L56.292,21.32L60.306,30.383L57.101,30.383L56.441,28.751ZM56.664,28.42L57.324,30.052L59.796,30.052L56.076,21.652L53.736,21.652L50.028,30.052L52.452,30.052L53.112,28.42L56.664,28.42ZM55.968,26.668L53.808,26.668L54.888,23.98L55.968,26.668ZM55.478,26.336L54.888,24.869C54.888,24.869 54.299,26.336 54.299,26.336L55.478,26.336Z" style="fill:white;"/>
        </g>
        <g transform="matrix(3.01731,0,0,3.01731,-92.9696,-4.94736)">
            <g transform="matrix(12,0,0,12,59.4243,30.0516)">
            </g>
            <text x="50.196px" y="30.052px" style="font-family:'Montserrat-ExtraBold', 'Montserrat';font-weight:800;font-size:12px;fill:rgb(255,205,205);">B</text>
            <path d="M58.163,25.619C58.45,25.789 58.69,26.002 58.884,26.256C59.198,26.668 59.36,27.164 59.36,27.748C59.36,28.603 59.014,29.261 58.326,29.726C57.69,30.156 56.775,30.383 55.572,30.383L50.705,30.383L50.705,21.32L55.332,21.32C56.49,21.32 57.367,21.548 57.972,21.975C58.626,22.438 58.952,23.062 58.952,23.848C58.952,24.313 58.836,24.729 58.608,25.096C58.487,25.292 58.339,25.466 58.163,25.619ZM57.492,25.672C57.852,25.488 58.13,25.238 58.326,24.922C58.522,24.606 58.62,24.248 58.62,23.848C58.62,23.176 58.34,22.642 57.78,22.246C57.22,21.85 56.404,21.652 55.332,21.652L51.036,21.652L51.036,30.052L55.572,30.052C56.692,30.052 57.548,29.852 58.14,29.452C58.732,29.052 59.028,28.484 59.028,27.748C59.028,27.244 58.892,26.814 58.62,26.458C58.348,26.102 57.972,25.84 57.492,25.672ZM53.388,23.368L55.02,23.368C55.82,23.368 56.22,23.636 56.22,24.172C56.22,24.716 55.82,24.988 55.02,24.988L53.388,24.988L53.388,23.368ZM53.72,23.699L53.72,24.656L55.02,24.656C55.569,24.656 55.889,24.544 55.889,24.172C55.889,23.805 55.568,23.699 55.02,23.699L53.72,23.699ZM55.38,28.336L53.388,28.336L53.388,26.632L55.38,26.632C56.212,26.632 56.628,26.916 56.628,27.484C56.628,28.052 56.212,28.336 55.38,28.336ZM55.38,28.004C55.961,28.004 56.297,27.88 56.297,27.484C56.297,27.087 55.961,26.963 55.38,26.963L53.72,26.963L53.72,28.004L55.38,28.004Z" style="fill:white;"/>
        </g>
        <g transform="matrix(3.01731,0,0,3.01731,-42.3385,-4.93736)">
            <g transform="matrix(12,0,0,12,59.0403,30.0516)">
            </g>
            <text x="50.196px" y="30.052px" style="font-family:'Montserrat-ExtraBold', 'Montserrat';font-weight:800;font-size:12px;fill:rgb(255,205,205);">X</text>
            <path d="M54.602,28.047L53.063,30.383L49.525,30.383L52.825,25.802L49.665,21.32L53.154,21.32C53.154,21.32 54.658,23.491 54.658,23.491L56.141,21.32L59.532,21.32L56.365,25.708L59.722,30.383L56.163,30.383L54.602,28.047ZM56.34,30.052L59.076,30.052L55.956,25.708L58.884,21.652L56.316,21.652L54.66,24.076L52.98,21.652L50.304,21.652L53.232,25.804L50.172,30.052L52.884,30.052L54.6,27.448L56.34,30.052Z" style="fill:white;"/>
        </g>
        <g transform="matrix(3.01731,0,0,3.01731,7.86615,-4.94736)">
            <g transform="matrix(12,0,0,12,58.5123,30.0516)">
            </g>
            <text x="50.196px" y="30.052px" style="font-family:'Montserrat-ExtraBold', 'Montserrat';font-weight:800;font-size:12px;fill:rgb(255,205,205);">Y</text>
            <path d="M55.868,27.131L55.868,30.383L52.829,30.383L52.829,27.095L49.372,21.32L52.652,21.32L54.456,24.341L56.26,21.32L59.336,21.32L55.868,27.131ZM55.536,27.04L58.752,21.652L56.448,21.652L54.456,24.988L52.464,21.652L49.956,21.652L53.16,27.004L53.16,30.052L55.536,30.052L55.536,27.04Z" style="fill:white;"/>
        </g>
    </g>
</svg>
