<?xml version="1.0" encoding="UTF-8" standalone="no"?>
<!DOCTYPE svg PUBLIC "-//W3C//DTD SVG 1.1//EN" "http://www.w3.org/Graphics/SVG/1.1/DTD/svg11.dtd">
<svg width="100%" height="100%" viewBox="0 0 48 48" version="1.1" xmlns="http://www.w3.org/2000/svg" xmlns:xlink="http://www.w3.org/1999/xlink" xml:space="preserve" xmlns:serif="http://www.serif.com/" style="fill-rule:evenodd;clip-rule:evenodd;stroke-linejoin:round;stroke-miterlimit:2;">
    <g transform="matrix(1,0,0,1,-49.39,-49.37)">
        <g>
            <g>
                <g id="B-2">
                    <path d="M73.08,49.37C86.076,49.37 96.77,60.064 96.77,73.06C96.77,86.056 86.076,96.75 73.08,96.75C60.084,96.75 49.39,86.056 49.39,73.06C49.395,60.066 60.086,49.375 73.08,49.37Z" style="fill:rgb(255,99,99);fill-rule:nonzero;"/>
                </g>
            </g>
            <g transform="matrix(3.01731,0,0,3.01731,-142.008,-4.94236)">
                <g transform="matrix(12,0,0,12,59.6283,30.0516)">
                </g>
                <text x="50.196px" y="30.052px" style="font-family:'Montserrat-ExtraBold', 'Montserrat';font-weight:800;font-size:12px;fill:rgb(255,205,205);">A</text>
                <path d="M56.441,28.751L53.336,28.751L52.676,30.383L49.52,30.383L53.52,21.32L56.292,21.32L60.306,30.383L57.101,30.383L56.441,28.751ZM56.664,28.42L57.324,30.052L59.796,30.052L56.076,21.652L53.736,21.652L50.028,30.052L52.452,30.052L53.112,28.42L56.664,28.42ZM55.968,26.668L53.808,26.668L54.888,23.98L55.968,26.668ZM55.478,26.336L54.888,24.869C54.888,24.869 54.299,26.336 54.299,26.336L55.478,26.336Z" style="fill:white;"/>
            </g>
            <g transform="matrix(3.01731,0,0,3.01731,-92.9696,-4.94736)">
                <g transform="matrix(12,0,0,12,59.4243,30.0516)">
                </g>
                <text x="50.196px" y="30.052px" style="font-family:'Montserrat-ExtraBold', 'Montserrat';font-weight:800;font-size:12px;fill:rgb(255,205,205);">B</text>
                <path d="M58.163,25.619C58.45,25.789 58.69,26.002 58.884,26.256C59.198,26.668 59.36,27.164 59.36,27.748C59.36,28.603 59.014,29.261 58.326,29.726C57.69,30.156 56.775,30.383 55.572,30.383L50.705,30.383L50.705,21.32L55.332,21.32C56.49,21.32 57.367,21.548 57.972,21.975C58.626,22.438 58.952,23.062 58.952,23.848C58.952,24.313 58.836,24.729 58.608,25.096C58.487,25.292 58.339,25.466 58.163,25.619ZM57.492,25.672C57.852,25.488 58.13,25.238 58.326,24.922C58.522,24.606 58.62,24.248 58.62,23.848C58.62,23.176 58.34,22.642 57.78,22.246C57.22,21.85 56.404,21.652 55.332,21.652L51.036,21.652L51.036,30.052L55.572,30.052C56.692,30.052 57.548,29.852 58.14,29.452C58.732,29.052 59.028,28.484 59.028,27.748C59.028,27.244 58.892,26.814 58.62,26.458C58.348,26.102 57.972,25.84 57.492,25.672ZM53.388,23.368L55.02,23.368C55.82,23.368 56.22,23.636 56.22,24.172C56.22,24.716 55.82,24.988 55.02,24.988L53.388,24.988L53.388,23.368ZM53.72,23.699L53.72,24.656L55.02,24.656C55.569,24.656 55.889,24.544 55.889,24.172C55.889,23.805 55.568,23.699 55.02,23.699L53.72,23.699ZM55.38,28.336L53.388,28.336L53.388,26.632L55.38,26.632C56.212,26.632 56.628,26.916 56.628,27.484C56.628,28.052 56.212,28.336 55.38,28.336ZM55.38,28.004C55.961,28.004 56.297,27.88 56.297,27.484C56.297,27.087 55.961,26.963 55.38,26.963L53.72,26.963L53.72,28.004L55.38,28.004Z" style="fill:white;"/>
            </g>
        </g>
    </g>
</svg>
