<?xml version="1.0" encoding="UTF-8" standalone="no"?>
<!DOCTYPE svg PUBLIC "-//W3C//DTD SVG 1.1//EN" "http://www.w3.org/Graphics/SVG/1.1/DTD/svg11.dtd">
<svg width="100%" height="100%" viewBox="0 0 172 63" version="1.1" xmlns="http://www.w3.org/2000/svg" xmlns:xlink="http://www.w3.org/1999/xlink" xml:space="preserve" xmlns:serif="http://www.serif.com/" style="fill-rule:evenodd;clip-rule:evenodd;stroke-linejoin:round;stroke-miterlimit:2;">
    <g id="LB_Pressed">
        <path d="M134.22,0.76C92,-4.86 38.28,22.22 20,32.13C19.73,32.3 19.44,32.45 19.17,32.6C19.09,32.658 19.006,32.711 18.92,32.76C18.74,32.85 18.57,32.96 18.39,33.07C18.299,33.133 18.202,33.187 18.1,33.23C17.956,33.339 17.806,33.439 17.65,33.53L17.36,33.71C17.228,33.812 17.087,33.902 16.94,33.98L16.67,34.19L16.27,34.46L16.02,34.65C15.89,34.738 15.766,34.835 15.65,34.94C15.561,34.988 15.478,35.045 15.4,35.11L15,35.4L14.78,35.59C14.66,35.69 14.55,35.77 14.43,35.88C14.359,35.938 14.292,36.002 14.23,36.07C14.107,36.155 13.994,36.252 13.89,36.36C13.837,36.421 13.777,36.475 13.71,36.52L13.38,36.84L13.21,37C13.114,37.12 13.007,37.23 12.89,37.33C12.847,37.378 12.807,37.428 12.77,37.48C12.65,37.587 12.539,37.704 12.44,37.83C12.409,37.875 12.372,37.915 12.33,37.95C12.22,38.07 12.11,38.21 12.02,38.32L11.92,38.42L11.61,38.83L11.54,38.91C11.425,39.054 11.319,39.204 11.22,39.36C11.121,39.516 11.22,39.36 11.22,39.36C11.22,39.36 11,39.69 10.89,39.83C10.78,39.97 108.58,-2.17 132.89,5.45C148.42,10.32 160.11,20.78 165.69,23.68L169.11,17.33C156.69,13.78 142.07,1.8 134.22,0.76Z" style="fill:rgb(255,203,203);fill-rule:nonzero;"/>
        <g>
            <path d="M166.17,24L166.63,24.19L166.17,24Z" style="fill:rgb(255,203,203);fill-rule:nonzero;"/>
            <path d="M165.69,23.72C160.11,20.84 148.43,10.36 132.88,5.49C108.67,-2.07 11.57,39.58 10.9,39.86C5.9,47.3 8.69,55.19 0.06,62.86L0,62.86C33.16,45 99.17,24.75 118.75,28.53C127.87,30.29 138.65,40.62 149.83,53.29L165.68,23.71L165.69,23.72Z" style="fill:rgb(255,153,153);fill-rule:nonzero;"/>
            <path d="M165.69,23.72L166.17,23.97L165.69,23.72Z" style="fill:rgb(255,95,95);fill-rule:nonzero;"/>
        </g>
        <path d="M150.55,54.1C150.79,54.4 151.02,54.67 151.28,54.94L167.66,24.4L171.15,17.87C170.81,17.8 170.47,17.74 170.15,17.64C169.83,17.54 169.47,17.45 169.15,17.37L165.73,23.71L149.83,53.3L150.55,54.1" style="fill:rgb(255,95,95);fill-rule:nonzero;"/>
    </g>
</svg>
