<?xml version="1.0" encoding="UTF-8" standalone="no"?>
<!DOCTYPE svg PUBLIC "-//W3C//DTD SVG 1.1//EN" "http://www.w3.org/Graphics/SVG/1.1/DTD/svg11.dtd">
<svg width="100%" height="100%" viewBox="0 0 56 35" version="1.1" xmlns="http://www.w3.org/2000/svg" xmlns:xlink="http://www.w3.org/1999/xlink" xml:space="preserve" xmlns:serif="http://www.serif.com/" style="fill-rule:evenodd;clip-rule:evenodd;stroke-linejoin:round;stroke-miterlimit:2;">
    <g transform="matrix(1,0,0,1,-0.00486392,-93.68)">
        <g id="Right">
        </g>
        <g id="Right1" serif:id="Right">
        </g>
        <g id="Right2" serif:id="Right">
        </g>
        <g id="Right3" serif:id="Right" transform="matrix(-1,-1.22465e-16,1.22465e-16,-1,55.32,185.36)">
            <g>
                <path d="M13.77,87.56L0.71,74.5L13.77,61.44L48,61.44C49.81,61.44 51.23,67.18 51.23,74.5C51.23,81.82 49.79,87.56 48,87.56L13.77,87.56Z" style="fill:url(#_Linear1);fill-rule:nonzero;"/>
                <path d="M48,61.94C49.14,61.94 50.73,66.72 50.73,74.5C50.73,82.28 49.12,87.06 48,87.06L14,87.06L1.41,74.5L14,61.94L48,61.94M48,60.94L13.56,60.94L0,74.5L13.56,88.06L48,88.06C53,88.06 53,60.94 48,60.94Z" style="fill:url(#_Linear2);fill-rule:nonzero;"/>
            </g>
            <path d="M48,60.94L50.76,58.17C49.944,57.621 48.983,57.326 48,57.32L17.17,57.32L13.56,61L48,60.94Z" style="fill:url(#_Linear3);fill-rule:nonzero;"/>
            <path d="M48,88.06L13.56,88.06L17.16,91.68L49.48,91.68L49.82,91.33C50.144,91.197 50.452,91.029 50.74,90.83L48,88.06Z" style="fill:url(#_Linear4);fill-rule:nonzero;"/>
            <path d="M50.74,58.17L48,60.94C53,60.94 53,88.06 48,88.06L50.76,90.83C52.13,89.9 53.47,88.09 54.31,84.69C55.025,81.342 55.36,77.923 55.31,74.5C55.361,71.077 55.026,67.658 54.31,64.31C53.45,60.91 52.11,59.1 50.74,58.17Z" style="fill:url(#_Linear5);fill-rule:nonzero;"/>
        </g>
    </g>
    <defs>
        <linearGradient id="_Linear1" x1="0" y1="0" x2="1" y2="0" gradientUnits="userSpaceOnUse" gradientTransform="matrix(54.6051,0,0,54.6051,0.71,74.5)"><stop offset="0" style="stop-color:rgb(255,0,0);stop-opacity:0"/><stop offset="0.29" style="stop-color:rgb(255,0,0);stop-opacity:0"/><stop offset="1" style="stop-color:rgb(126,0,0);stop-opacity:1"/></linearGradient>
        <linearGradient id="_Linear2" x1="0" y1="0" x2="1" y2="0" gradientUnits="userSpaceOnUse" gradientTransform="matrix(54.6051,0,0,54.6051,0.71,74.5)"><stop offset="0" style="stop-color:rgb(255,0,0);stop-opacity:0"/><stop offset="0.29" style="stop-color:rgb(255,0,0);stop-opacity:0"/><stop offset="1" style="stop-color:rgb(202,0,0);stop-opacity:1"/></linearGradient>
        <linearGradient id="_Linear3" x1="0" y1="0" x2="1" y2="0" gradientUnits="userSpaceOnUse" gradientTransform="matrix(54.6051,0,0,54.6051,0.71,74.5)"><stop offset="0" style="stop-color:rgb(255,0,0);stop-opacity:0"/><stop offset="0.29" style="stop-color:rgb(255,0,0);stop-opacity:0"/><stop offset="1" style="stop-color:rgb(255,0,0);stop-opacity:1"/></linearGradient>
        <linearGradient id="_Linear4" x1="0" y1="0" x2="1" y2="0" gradientUnits="userSpaceOnUse" gradientTransform="matrix(54.6051,0,0,54.6051,0.71,74.5)"><stop offset="0" style="stop-color:rgb(255,0,0);stop-opacity:0"/><stop offset="0.29" style="stop-color:rgb(255,0,0);stop-opacity:0"/><stop offset="1" style="stop-color:rgb(255,0,0);stop-opacity:1"/></linearGradient>
        <linearGradient id="_Linear5" x1="0" y1="0" x2="1" y2="0" gradientUnits="userSpaceOnUse" gradientTransform="matrix(54.6051,0,0,54.6051,0.71,74.5)"><stop offset="0" style="stop-color:rgb(255,0,0);stop-opacity:0"/><stop offset="0.29" style="stop-color:rgb(255,0,0);stop-opacity:0"/><stop offset="1" style="stop-color:rgb(255,0,0);stop-opacity:1"/></linearGradient>
    </defs>
</svg>
