<?xml version="1.0" encoding="UTF-8" standalone="no"?>
<!DOCTYPE svg PUBLIC "-//W3C//DTD SVG 1.1//EN" "http://www.w3.org/Graphics/SVG/1.1/DTD/svg11.dtd">
<svg width="100%" height="100%" viewBox="0 0 169 84" version="1.1" xmlns="http://www.w3.org/2000/svg" xmlns:xlink="http://www.w3.org/1999/xlink" xml:space="preserve" xmlns:serif="http://www.serif.com/" style="fill-rule:evenodd;clip-rule:evenodd;stroke-linejoin:round;stroke-miterlimit:2;">
    <g>
        <g>
            <path d="M168.77,41.7C168.765,64.567 149.947,83.38 127.08,83.38C104.21,83.38 85.39,64.56 85.39,41.69C85.39,18.823 104.203,0.005 127.07,0C127.077,-0 127.083,-0 127.09,-0C149.955,-0 168.77,18.815 168.77,41.68C168.77,41.687 168.77,41.693 168.77,41.7Z" style="fill:rgb(27,0,0);fill-rule:nonzero;"/>
            <path d="M127.07,0L125.06,0L126.06,20L127.06,20L127.06,0L127.07,0ZM123.07,0.19L122.76,0.19C122.2,0.25 121.64,0.32 121.09,0.4L123.93,20.19C124.28,20.19 124.62,20.1 124.93,20.07L123.07,0.19ZM119.12,0.76L118.6,0.76C118.12,0.86 117.6,0.96 117.16,1.08L121.9,20.51C122.23,20.43 122.57,20.35 122.9,20.29L119.12,0.76ZM115.23,1.76L114.43,2L114.31,2L113.38,2.31L119.97,21.19C120.29,21.08 120.62,20.97 120.97,20.88L115.23,1.71L115.23,1.76ZM111.46,3C110.84,3.25 110.23,3.52 109.62,3.8L118,22C118.32,21.85 118.63,21.71 119,21.58L111.46,3ZM107.83,4.7C107.24,5.01 106.65,5.33 106.08,5.7L116.17,22.98C116.46,22.8 116.77,22.63 117.07,22.47L107.83,4.7ZM104.38,6.7C103.82,7.06 103.27,7.43 102.72,7.83L114.42,24.05L115.28,23.46L104.38,6.72L104.38,6.7ZM101.13,9.03C100.61,9.45 100.1,9.88 99.6,10.32L112.78,25.32C113.05,25.09 113.31,24.87 113.59,24.65L101.13,9.05L101.13,9.03ZM98.13,11.67L97.29,12.51L96.86,12.96L111.42,26.67C111.66,26.42 111.91,26.17 112.16,25.93L98.12,11.69L98.13,11.67ZM95.38,14.6C95,15.05 94.64,15.5 94.28,15.96L110.08,28.22C110.29,27.95 110.52,27.68 110.74,27.41L95.54,14.41L95.38,14.6ZM92.93,17.76L92.78,17.99C92.46,18.45 92.15,18.91 91.85,19.38L108.75,30.08C108.94,29.79 109.13,29.49 109.33,29.21L92.93,17.76ZM90.79,21.14L90.34,21.95C90.17,22.26 90.01,22.57 89.85,22.88L107.7,31.88C107.85,31.57 108.02,31.26 108.19,30.96L90.79,21.09L90.79,21.14ZM89,24.71L88.8,25.16L88.8,25.28C88.62,25.7 88.45,26.12 88.28,26.55L106.91,33.81C107.04,33.49 107.17,33.17 107.31,32.81L89,24.71ZM87.55,28.43C87.46,28.7 87.37,28.97 87.29,29.24C87.21,29.51 87.29,29.24 87.29,29.24C87.23,29.42 87.18,29.6 87.13,29.79L106.37,35.22C106.47,34.89 106.57,34.56 106.68,34.22L87.68,27.87L87.55,28.43ZM86.46,32.28C86.34,32.813 86.23,33.343 86.13,33.87C86.13,34 86.08,34.12 86.06,34.24L105.74,37.79C105.8,37.45 105.87,37.11 105.95,36.79L86.46,32.29L86.46,32.28ZM85.75,36.22L85.6,37.5L85.54,38.09L105.47,39.75C105.47,39.4 105.54,39.05 105.59,38.75L85.75,36.15L85.75,36.22ZM85.42,40.2L85.42,41.92L105.42,41.69L105.42,41.7L105.42,40.91L85.42,40.2ZM105.42,43.04L85.42,44.22C85.42,44.79 85.5,45.36 85.55,45.92L85.55,46.1L105.44,43.97C105.44,43.63 105.37,43.28 105.35,42.97L105.42,43.04ZM105.65,45.12L85.89,48.18C85.98,48.71 86.07,49.23 86.17,49.75L86.17,49.92L105.76,45.92C105.693,45.58 105.633,45.247 105.58,44.92L105.65,45.12ZM106.06,47.12L86.69,52.12C86.86,52.77 87.04,53.41 87.23,54.05L106.34,48.15C106.24,47.82 106.15,47.48 106.06,47.15L106.06,47.12ZM106.67,49.12L87.87,55.93C88.1,56.56 88.34,57.18 88.6,57.8L107.05,50.08C106.92,49.76 106.79,49.44 106.67,49.08L106.67,49.12ZM107.47,51.02L89.41,59.6C89.41,59.67 89.48,59.75 89.52,59.82C89.69,60.19 89.88,60.55 90.07,60.92L90.24,61.24L107.87,51.79C107.71,51.48 107.55,51.17 107.4,50.86L107.47,51.02ZM108.47,52.85L91.3,63.12L91.6,63.6C91.84,63.98 92.09,64.37 92.34,64.74L109,53.71C108.81,53.42 108.62,53.13 108.44,52.83L108.47,52.85ZM109.63,54.58L93.52,66.45L93.75,66.75C93.98,67.05 94.22,67.35 94.46,67.64L109.96,55C109.74,54.73 109.52,54.45 109.32,54.17L109.63,54.58ZM110.95,56.2L96.05,69.55C96.5,70.04 96.95,70.55 97.42,71L111.65,56.94C111.4,56.7 111.16,56.44 110.93,56.18L110.95,56.2ZM112.42,57.69L98.86,72.39L99.62,73.07L99.68,73.07L100.35,73.64L113.17,58.29C112.9,58.07 112.63,57.83 112.38,57.6L112.42,57.69ZM114,59L101.93,75L102.86,75.68L103.55,76.16L114.85,59.66L114,59ZM115.72,60.18L105.23,77.18L105.33,77.25C105.83,77.55 106.33,77.85 106.85,78.13L116.51,60.62L115.61,60.1L115.72,60.18ZM117.54,61.18L108.73,79.18L109.07,79.35L109.23,79.35C109.65,79.55 110.07,79.74 110.5,79.92L118.43,61.56C118.12,61.43 117.8,61.28 117.49,61.13L117.54,61.18ZM119.44,62L112.44,80.72C113.07,80.96 113.69,81.17 114.33,81.38L120.46,62.38L119.46,62.04L119.44,62ZM121.44,62.63L116.21,82L116.45,82.06L116.65,82.06C117.15,82.193 117.65,82.313 118.15,82.42L122.41,62.87C122.07,62.8 121.74,62.72 121.41,62.63L121.44,62.63ZM123.44,63.07L120.13,82.8C120.63,82.88 121.13,82.96 121.64,83.02L122.11,83.08L124.47,63.22C124.12,63.22 123.78,63.13 123.47,63.07L123.44,63.07ZM125.51,63.32L124.1,83.32L126.13,83.32L126.6,63.32L125.51,63.32ZM128.67,63.32L127.67,63.37L128.14,83.37L128.83,83.37L130.02,83.31L130.14,83.31L128.72,63.31L128.67,63.32ZM130.74,63.07C130.4,63.13 130.05,63.18 129.74,63.22L132.11,83.08C132.73,83 133.34,82.92 133.94,82.82L134.09,82.82L130.77,63.09L130.74,63.07ZM132.74,62.63C132.41,62.72 132.07,62.8 131.74,62.87L136,82.42L136.42,82.42L137.18,82.24L137.54,82.24L138,82L132.8,62.68L132.74,62.63ZM134.74,62L133.74,62.34L139.88,81.34L140.8,81.03L141,81.03L141.77,80.74L134.77,62.03L134.74,62ZM136.64,61.17L135.7,61.61L143.62,80C143.97,79.85 144.32,79.7 144.62,79.53L144.78,79.53L145.39,79.24L136.58,61.24L136.64,61.17ZM138.46,60.17C138.16,60.35 137.86,60.53 137.56,60.69L147.23,78.2L147.41,78.1L147.51,78.1C147.98,77.84 148.43,77.57 148.88,77.3L138.39,60.3L138.46,60.17ZM140.16,59C139.88,59.21 139.6,59.42 139.31,59.61L150.61,76.11C150.86,75.94 151.12,75.76 151.36,75.58L151.51,75.58L152.11,75.13L140.16,59ZM141.76,57.66C141.51,57.9 141.24,58.13 140.98,58.35L153.8,73.7L154.14,73.7C154.48,73.42 154.8,73.13 155.14,72.84L155.2,72.84L141.76,57.66ZM143.23,56.17C143,56.43 142.76,56.69 142.51,56.94L156.74,70.94C157.05,70.62 157.36,70.3 157.66,69.94L157.98,69.59L143.23,56.17ZM144.55,54.56C144.35,54.83 144.13,55.11 143.91,55.38L159.41,68C159.61,67.74 159.82,67.48 160.02,67.21L160.38,66.74L144.55,54.56ZM145.71,52.82C145.53,53.12 145.34,53.41 145.15,53.7L161.79,64.8L161.93,64.59C162.24,64.12 162.54,63.64 162.83,63.16L145.71,52.82ZM146.71,50.99C146.56,51.31 146.4,51.62 146.24,51.92L163.87,61.37L164.14,60.86C164.28,60.58 164.42,60.31 164.55,60.03C164.55,59.92 164.65,59.81 164.71,59.7L146.69,51L146.71,50.99ZM147.51,49.09C147.39,49.41 147.26,49.73 147.13,50.09L165.58,57.8L165.87,57.11C166.01,56.75 166.14,56.4 166.27,56.05L147.47,49.24L147.51,49.09ZM148.11,47.09C148.03,47.42 147.93,47.76 147.83,48.09L166.93,54L167.05,53.59L167.38,52.38L148,47.38L148.11,47.09ZM148.53,45.09C148.53,45.43 148.41,45.77 148.35,46.09L167.94,50.09C168.05,49.52 168.16,48.94 168.25,48.37L168.25,48.12L148.49,45.05L148.53,45.09ZM148.75,43.01C148.75,43.36 148.75,43.71 148.67,44.01L168.55,46.14C168.55,45.9 168.6,45.67 168.62,45.43C168.62,45.05 168.68,44.67 168.7,44.29L168.7,44.23L148.7,43.05L148.75,43.01ZM168.75,40.19L148.75,40.9L148.75,42L168.75,42.23L168.75,40.19ZM168.42,36.19L148.59,38.8C148.59,39.14 148.67,39.49 148.7,39.8L168.63,38.14L168.63,37.67C168.63,37.21 168.53,36.75 168.47,36.3L168.42,36.19ZM167.71,32.26L148.22,36.76C148.3,37.09 148.37,37.44 148.43,37.76L168.11,34.2L167.93,33.25L167.87,32.93L167.87,32.87L167.81,32.63L167.71,32.26ZM166.62,28.41L147.62,34.77C147.727,35.097 147.827,35.43 147.92,35.77L167.17,30.33C167.03,29.84 166.88,29.33 166.72,28.87C166.72,28.77 166.65,28.68 166.62,28.58L166.62,28.41ZM165.17,24.68L146.9,32.85C147.04,33.17 147.17,33.49 147.3,33.85L165.93,26.58C165.69,25.96 165.43,25.34 165.16,24.73L165.17,24.68ZM163.36,21.11L146,31C146.17,31.3 146.34,31.61 146.49,31.92L164.34,22.92C164.07,22.4 163.8,21.92 163.51,21.37L163.36,21.11ZM161.22,17.74L144.86,29.24C145.06,29.52 145.25,29.81 145.44,30.1L162.33,19.4L162.2,19.2L161.54,18.2L161.27,17.82L161.22,17.74ZM158.77,14.58L143.58,27.58C143.8,27.84 144.02,28.11 144.24,28.39L160,16.14L159.89,15.99L159.76,15.84L158.77,14.58ZM156,11.68L142.11,26.08L142.85,26.82L157.42,13.1C156.96,12.61 156.5,12.1 156.02,11.68L156,11.68ZM153,9L140.56,24.7C140.83,24.91 141.1,25.14 141.36,25.37L154.54,10.37L154.31,10.16L153,9ZM149.75,6.67L138.87,23.48C139.16,23.67 139.45,23.86 139.73,24.07L151.42,7.84L151,7.51L150.94,7.51L150.43,7.15L150.35,7.15L149.8,6.79L149.75,6.67ZM146.3,4.67L137.06,22.41C137.37,22.57 137.67,22.74 137.97,22.91L148.06,5.66L147.63,5.41L147.57,5.41C147.17,5.18 146.77,4.97 146.36,4.75L146.3,4.67ZM142.68,3L135.19,21.54L136.14,21.95L144.52,3.79L144.2,3.79C143.7,3.56 143.2,3.35 142.68,3.14L142.68,3ZM138.9,1.7L133.24,20.88L134.24,21.2L140.83,2.31L139.49,1.87L139.34,1.87L138.92,1.74L138.9,1.7ZM135,0.76L131.21,20.39L132.21,20.61L137,1.18L136.77,1.18L135.95,0.99L135.72,0.99C135.49,0.93 135.27,0.89 135.05,0.85L135,0.76ZM131,0.19L129.17,20.1C129.52,20.1 129.87,20.17 130.17,20.22L133.05,0.42L132.55,0.36L132.34,0.36L131.44,0.26L131.06,0.26L131,0.19ZM127,0L127,20L128.06,20L129,0L127,0Z" style="fill:url(#_Radial1);fill-rule:nonzero;"/>
        </g>
        <path d="M127.07,2C127.073,2 127.077,2 127.08,2C148.853,2 166.77,19.917 166.77,41.69C166.77,63.463 148.853,81.38 127.08,81.38C105.31,81.38 87.395,63.47 87.39,41.7C87.417,19.939 105.309,2.038 127.07,2M127.07,0C104.203,0.005 85.39,18.823 85.39,41.69C85.39,64.56 104.21,83.38 127.08,83.38C149.947,83.38 168.765,64.567 168.77,41.7C168.77,41.697 168.77,41.693 168.77,41.69C168.77,18.82 149.95,-0 127.08,-0C127.077,-0 127.073,-0 127.07,0Z" style="fill:rgb(255,2,2);fill-rule:nonzero;"/>
        <g opacity="0.06">
            <path d="M163.09,41.7C163.09,61.449 146.839,77.7 127.09,77.7C107.341,77.7 91.09,61.449 91.09,41.7C91.09,21.951 107.341,5.7 127.09,5.7C146.839,5.7 163.09,21.951 163.09,41.7Z" style="fill:rgb(255,2,2);fill-rule:nonzero;"/>
        </g>
        <g>
            <path d="M127.07,69.83C111.638,69.83 98.94,57.132 98.94,41.7C98.94,26.268 111.638,13.57 127.07,13.57C142.502,13.57 155.2,26.268 155.2,41.7C155.189,57.128 142.498,69.819 127.07,69.83Z" style="fill:rgb(25,0,0);fill-rule:nonzero;"/>
            <path d="M127.07,16.58C127.09,16.58 127.11,16.58 127.13,16.58C140.916,16.58 152.26,27.924 152.26,41.71C152.26,55.496 140.916,66.84 127.13,66.84C113.344,66.84 102,55.496 102,41.71C102,41.707 102,41.703 102,41.7C102.016,27.926 113.346,16.596 127.12,16.58M127.12,10.58C127.103,10.58 127.087,10.58 127.07,10.58C109.993,10.58 95.94,24.633 95.94,41.71C95.94,58.787 109.993,72.84 127.07,72.84C144.147,72.84 158.2,58.787 158.2,41.71C158.2,41.707 158.2,41.7 158.2,41.7C158.2,24.628 144.152,10.58 127.08,10.58C127.077,10.58 127.073,10.58 127.07,10.58L127.12,10.58Z" style="fill:rgb(38,0,0);fill-rule:nonzero;"/>
        </g>
    </g>
    <g id="LS_pressed">
        <g>
            <path d="M83.39,41.7C83.39,64.576 64.566,83.4 41.69,83.4C18.814,83.4 -0.01,64.576 -0.01,41.7C-0.01,18.824 18.814,0 41.69,0C41.693,-0 41.697,-0 41.7,-0C64.57,-0 83.39,18.82 83.39,41.69C83.39,41.693 83.39,41.697 83.39,41.7Z" style="fill:rgb(255,203,203);fill-rule:nonzero;"/>
            <path d="M41.69,0L39.68,0L40.62,20L41.69,20L41.69,0ZM37.69,0.19L37.38,0.19C36.82,0.25 36.26,0.32 35.71,0.4L38.55,20.19C38.89,20.19 39.24,20.1 39.55,20.07L37.69,0.19ZM33.73,0.76L33.18,0.76C32.7,0.86 32.18,0.96 31.74,1.08L36.47,20.51C36.81,20.43 37.15,20.35 37.47,20.29L33.73,0.76ZM29.81,1.76L29.01,2L28.9,2L27.97,2.31L34.57,21.19C34.89,21.08 35.22,20.97 35.57,20.88L29.85,1.71L29.81,1.76ZM26.07,3C25.45,3.25 24.84,3.52 24.24,3.8L32.62,22C32.93,21.85 33.25,21.71 33.62,21.58L26.07,3ZM22.44,4.7C21.85,5.01 21.27,5.33 20.69,5.7L30.78,22.94C31.08,22.76 31.38,22.59 31.69,22.43L22.44,4.7ZM19,6.72C18.44,7.08 17.89,7.45 17.35,7.85L29,24.07C29.29,23.87 29.57,23.67 29.87,23.48L19,6.72ZM15.75,9.05C15.22,9.47 14.75,9.9 14.21,10.34L27.4,25.34C27.66,25.11 27.93,24.89 28.2,24.67L15.75,9.05ZM12.75,11.69C12.46,11.96 12.19,12.24 11.91,12.53L11.48,12.98L25.9,26.82C26.13,26.57 26.38,26.32 26.63,26.08L12.74,11.69L12.75,11.69ZM10,14.6L9.87,14.6C9.49,15.05 9.12,15.5 8.77,15.96L24.57,28.22C24.783,27.953 25.003,27.683 25.23,27.41L10,14.6ZM7.55,17.76L7.39,18C7.07,18.46 6.77,18.92 6.47,19.39L23.37,30.09C23.55,29.8 23.75,29.5 23.95,29.22L7.55,17.76ZM5.41,21.14L5,22L4.51,22.93L22.36,31.93C22.52,31.62 22.68,31.31 22.86,31.01L5.41,21.14ZM3.61,24.71C3.54,24.86 3.47,25.01 3.41,25.16L3.41,25.22C3.406,25.24 3.406,25.26 3.41,25.28C3.23,25.7 3.05,26.12 2.89,26.55L21.52,33.81C21.65,33.49 21.78,33.17 21.92,32.81L3.61,24.71ZM2.15,28.43C2.06,28.7 1.98,28.97 1.89,29.24C1.8,29.51 1.89,29.24 1.89,29.24C1.83,29.42 1.78,29.6 1.73,29.79L20.98,35.22C21.067,34.887 21.167,34.553 21.28,34.22L2.28,27.87L2.15,28.43ZM1.07,32.28C1,32.81 0.83,33.34 0.73,33.87C0.73,34 0.73,34.12 0.66,34.24L20.35,37.79C20.41,37.45 20.48,37.11 20.55,36.79L1.07,32.28ZM0.36,36.22C0.3,36.64 0.25,37.07 0.21,37.5C0.21,37.7 0.21,37.89 0.16,38.09L20.09,39.75C20.09,39.4 20.16,39.05 20.2,38.75L0.36,36.22ZM0,40.2L0,41.9L20,42L20,40.91L0,40.2ZM20,43L0.07,44.2C0.07,44.77 0.15,45.34 0.21,45.9C0.205,45.96 0.205,46.02 0.21,46.08L20.09,43.95C20.09,43.61 20.03,43.26 20.01,42.95L20,43ZM20.22,45.08L0.5,48.17C0.58,48.7 0.67,49.22 0.78,49.74L0.78,49.9L20.37,45.9C20.31,45.56 20.24,45.22 20.19,44.9L20.22,45.08ZM20.64,47.08L1.27,52.08C1.43,52.73 1.61,53.37 1.81,54.01L21,48.12C20.9,47.79 20.8,47.45 20.72,47.12L20.64,47.08ZM21.25,49.08L2.48,55.91C2.71,56.54 2.95,57.16 3.21,57.78L21.66,50.06C21.53,49.74 21.4,49.42 21.29,49.06L21.25,49.08ZM22.04,50.98L4,59.6L4.1,59.82C4.28,60.19 4.46,60.55 4.65,60.92C4.65,61.03 4.76,61.14 4.82,61.25L22.44,51.79C22.28,51.48 22.12,51.17 21.97,50.86L22.04,50.98ZM23.04,52.81L5.92,63.12L6.21,63.6C6.45,63.98 6.7,64.37 6.95,64.74L23.58,53.64C23.39,53.35 23.2,53.06 23.03,52.76L23.04,52.81ZM24.19,54.54L8.14,66.45L8.36,66.75C8.59,67.05 8.82,67.35 9.06,67.64L24.56,55C24.34,54.73 24.13,54.45 23.92,54.17L24.19,54.54ZM25.51,56.16L10.67,69.55C11.11,70.04 11.57,70.55 12.04,71L26.26,56.94C26.02,56.7 25.77,56.44 25.54,56.18L25.51,56.16ZM27,57.67L13.48,72.39C13.73,72.62 13.98,72.85 14.24,73.07L14.3,73.07L14.96,73.64L27.8,58.36C27.53,58.14 27.27,57.9 27.01,57.67L27,57.67ZM28.62,59L16.55,75C16.85,75.23 17.16,75.46 17.48,75.68L18.17,76.16L29.46,59.66C29.18,59.46 28.89,59.26 28.62,59.05L28.62,59ZM30.34,60.18L19.85,77.18L19.95,77.25C20.45,77.55 20.95,77.85 21.47,78.13L31.14,60.62C30.83,60.45 30.53,60.28 30.24,60.1L30.34,60.18ZM32.16,61.18L23.35,79.18L23.68,79.35L23.84,79.35C24.26,79.55 24.68,79.74 25.1,79.92L33.1,61.62C32.78,61.49 32.46,61.34 32.16,61.19L32.16,61.18ZM34.06,62L27,80.73C27.62,80.97 28.25,81.18 28.89,81.39L35.01,62.39L34.01,62.05L34.06,62ZM36.06,62.63L30.82,82L31.06,82.06L31.27,82.06C31.763,82.193 32.263,82.313 32.77,82.42L37,62.88C36.66,62.81 36.32,62.73 36,62.64L36.06,62.63ZM38.06,63.07L34.73,82.81C35.23,82.89 35.73,82.97 36.24,83.03L36.71,83.09L39.07,63.23C38.73,63.23 38.38,63.14 38.07,63.08L38.06,63.07ZM40.13,63.32L38.72,83.32L40.76,83.32L41.22,63.32L40.13,63.32ZM43.29,63.32L42.24,63.37L42.72,83.37L43.41,83.37L44.59,83.31L44.72,83.31L43.29,63.31L43.29,63.32ZM45.37,63.07C45.03,63.13 44.68,63.18 44.37,63.22L46.74,83.08C47.35,83 47.96,82.92 48.57,82.82L48.72,82.82L45.35,63.08L45.37,63.07ZM47.37,62.63C47.04,62.72 46.7,62.8 46.37,62.87L50.64,82.41L51.07,82.41L51.83,82.23L52.19,82.23L52.58,82.13L47.38,62.81L47.37,62.63ZM49.37,62L48.37,62.34L54.5,81.34L55.42,81.03L55.61,81.03L56.39,80.74L49.33,62L49.37,62ZM51.28,61.17L50.28,61.61L58.23,80C58.58,79.85 58.93,79.7 59.28,79.53L59.43,79.53L60.05,79.24L51.24,61.24L51.28,61.17ZM53.09,60.17C52.8,60.35 52.5,60.53 52.2,60.69L61.86,78.2L62.04,78.1L62.14,78.1L63.51,77.3L53.01,60.3L53.09,60.17ZM54.77,59C54.5,59.21 54.21,59.42 53.93,59.61L65.23,76.11L65.98,75.58L66.12,75.58L66.72,75.13L54.77,59ZM56.38,57.66C56.12,57.9 55.86,58.13 55.59,58.35L68.41,73.7L68.75,73.7L69.75,72.84L56.38,57.66ZM57.85,56.17C57.62,56.43 57.37,56.69 57.13,56.94L71.36,71L72.29,70C72.39,69.88 72.5,69.76 72.61,69.65L57.85,56.17ZM59.17,54.56C58.96,54.83 58.75,55.11 58.53,55.38L74,68C74.21,67.74 74.42,67.48 74.62,67.21C74.73,67.05 74.85,66.9 74.97,66.74L59.17,54.56ZM60.32,52.82C60.15,53.12 59.96,53.41 59.77,53.7L76.4,64.8L76.54,64.59C76.85,64.12 77.15,63.64 77.44,63.16L60.32,52.82ZM61.32,50.99C61.18,51.31 61.02,51.62 60.86,51.92L78.48,61.37L78.75,60.86L79.17,60.03C79.23,59.92 79.28,59.81 79.33,59.7L61.3,51L61.32,50.99ZM62.12,49.09C62,49.41 61.88,49.73 61.75,50.09L80.2,57.8C80.3,57.57 80.39,57.34 80.48,57.11C80.61,56.75 80.75,56.4 80.88,56.05L62.1,49.09L62.12,49.09ZM62.73,47.09C62.64,47.42 62.55,47.76 62.45,48.09L81.54,54C81.54,53.86 81.62,53.73 81.67,53.59C81.79,53.19 81.9,52.78 82,52.38L62.63,47.38L62.73,47.09ZM63.14,45.09C63.093,45.43 63.033,45.763 62.96,46.09L82.55,50.09C82.67,49.52 82.77,48.94 82.87,48.37C82.864,48.287 82.864,48.203 82.87,48.12L63.12,45.09L63.14,45.09ZM63.35,43C63.35,43.35 63.3,43.7 63.26,44L83.15,46.13C83.15,45.89 83.15,45.66 83.22,45.42C83.22,45.04 83.28,44.66 83.31,44.28L83.31,44.22L63.35,43ZM83.35,40.18L63.35,40.89L63.35,42L83.35,42.23L83.35,40.52C83.345,40.43 83.345,40.34 83.35,40.25L83.35,40.18ZM83.02,36.18L63.2,38.81C63.2,39.15 63.28,39.5 63.31,39.81L83.24,38.15L83.24,37.68C83.24,37.22 83.14,36.76 83.09,36.31L83.02,36.18ZM82.3,32.25L62.82,36.75L63.03,37.75L82.71,34.19C82.65,33.88 82.59,33.56 82.52,33.24L82.45,32.92L82.45,32.86L82.39,32.62L82.3,32.25ZM81.22,28.4L62.22,34.76C62.327,35.087 62.427,35.42 62.52,35.76L81.77,30.32C81.63,29.83 81.48,29.32 81.32,28.86C81.32,28.76 81.25,28.67 81.22,28.57L81.22,28.4ZM79.76,24.67L61.51,32.85C61.65,33.17 61.79,33.49 61.91,33.85L80.54,26.58C80.3,25.96 80.04,25.34 79.77,24.73L79.76,24.67ZM78,21.12L60.58,31C60.75,31.3 60.91,31.61 61.07,31.92L78.91,22.92C78.65,22.4 78.37,21.92 78.09,21.37L78,21.12ZM75.86,17.75L59.46,29.25C59.66,29.53 59.86,29.82 60.04,30.11L76.94,19.41L76.81,19.21C76.6,18.88 76.38,18.55 76.16,18.21L75.9,17.83L75.86,17.75ZM73.41,14.59L58.21,27.59C58.437,27.85 58.657,28.12 58.87,28.4L74.67,16.13L74.52,16L74.4,15.85L73.41,14.59ZM70.66,11.68L56.75,26.08C57,26.32 57.25,26.57 57.48,26.82L72,13.1C71.54,12.61 71.07,12.1 70.59,11.68L70.66,11.68ZM67.62,9L55.17,24.7C55.45,24.91 55.72,25.14 55.98,25.37L69.16,10.37L68.93,10.16C68.52,9.81 68.1,9.46 67.67,9.16L67.62,9ZM64.38,6.71L53.48,23.48C53.77,23.67 54.06,23.86 54.34,24.07L66,7.84L65.54,7.51L65,7.12L64.45,6.76L64.38,6.71ZM60.93,4.71L51.69,22.43L52.6,22.93L62.68,5.66L62.24,5.41L62.19,5.41C61.79,5.18 61.38,4.97 60.98,4.75L60.93,4.71ZM57.29,3L49.81,21.56L50.76,21.97L59.13,3.81L58.82,3.81C58.32,3.58 57.82,3.37 57.29,3.16L57.29,3ZM53.52,1.7L47.86,20.88L48.86,21.2L55.42,2.31L54.09,1.87L53.94,1.87L53.52,1.74L53.52,1.7ZM49.63,0.76L45.85,20.39L46.85,20.61L51.59,1.18L51.36,1.18L50.54,0.94L50.3,0.94L49.63,0.76ZM45.63,0.19L43.79,20.1C44.13,20.1 44.48,20.17 44.79,20.22L47.66,0.42L47.16,0.36L47,0.36L46.1,0.26L45.73,0.26L45.63,0.19ZM41.63,0L41.63,20L42.68,20L43.62,0L41.63,0Z" style="fill:url(#_Radial2);fill-rule:nonzero;"/>
        </g>
        <path d="M41.69,2C63.463,2 81.38,19.917 81.38,41.69C81.38,63.463 63.463,81.38 41.69,81.38C19.92,81.38 2.005,63.47 2,41.7C2.027,19.935 19.925,2.033 41.69,2M41.69,0C18.823,0.005 0.01,18.823 0.01,41.69C0.01,64.56 18.83,83.38 41.7,83.38C64.567,83.38 83.385,64.567 83.39,41.7C83.39,41.697 83.39,41.693 83.39,41.69C83.39,18.82 64.57,-0 41.7,-0C41.697,-0 41.693,-0 41.69,0Z" style="fill:rgb(255,179,179);fill-rule:nonzero;"/>
        <g opacity="0.06">
            <path d="M77.71,41.7C77.71,61.449 61.459,77.7 41.71,77.7C21.961,77.7 5.71,61.449 5.71,41.7C5.71,21.951 21.961,5.7 41.71,5.7C61.459,5.7 77.71,21.951 77.71,41.7Z" style="fill-rule:nonzero;"/>
        </g>
        <g>
            <path d="M41.69,69.83C41.687,69.83 41.683,69.83 41.68,69.83C26.248,69.83 13.55,57.132 13.55,41.7C13.55,26.268 26.248,13.57 41.68,13.57C57.112,13.57 69.81,26.268 69.81,41.7C69.794,57.122 57.112,69.808 41.69,69.83Z" style="fill:rgb(255,102,102);fill-rule:nonzero;"/>
            <path d="M41.69,16.58C55.476,16.58 66.82,27.924 66.82,41.71C66.82,55.496 55.476,66.84 41.69,66.84C27.904,66.84 16.56,55.496 16.56,41.71C16.56,41.707 16.56,41.703 16.56,41.7C16.576,27.922 27.912,16.591 41.69,16.58M41.69,10.58C41.687,10.58 41.683,10.58 41.68,10.58C24.603,10.58 10.55,24.633 10.55,41.71C10.55,58.787 24.603,72.84 41.68,72.84C58.757,72.84 72.81,58.787 72.81,41.71C72.81,41.707 72.81,41.703 72.81,41.7C72.81,24.628 58.762,10.58 41.69,10.58Z" style="fill:rgb(255,203,203);fill-rule:nonzero;"/>
        </g>
    </g>
    <defs>
        <radialGradient id="_Radial1" cx="0" cy="0" r="1" gradientUnits="userSpaceOnUse" gradientTransform="matrix(38.915,0.0149994,-0.0150066,38.9337,127.085,41.685)"><stop offset="0" style="stop-color:rgb(255,0,0);stop-opacity:0"/><stop offset="0.81" style="stop-color:rgb(255,0,0);stop-opacity:0"/><stop offset="1" style="stop-color:rgb(255,2,2);stop-opacity:1"/></radialGradient>
        <radialGradient id="_Radial2" cx="0" cy="0" r="1" gradientUnits="userSpaceOnUse" gradientTransform="matrix(39.31,0,0,39.3194,41.69,41.685)"><stop offset="0" style="stop-color:rgb(255,0,0);stop-opacity:0"/><stop offset="0.8" style="stop-color:rgb(255,0,0);stop-opacity:0"/><stop offset="1" style="stop-color:rgb(255,2,2);stop-opacity:1"/></radialGradient>
    </defs>
</svg>
