<?xml version="1.0" encoding="UTF-8" standalone="no"?>
<!DOCTYPE svg PUBLIC "-//W3C//DTD SVG 1.1//EN" "http://www.w3.org/Graphics/SVG/1.1/DTD/svg11.dtd">
<svg width="100%" height="100%" viewBox="0 0 63 63" version="1.1" xmlns="http://www.w3.org/2000/svg" xmlns:xlink="http://www.w3.org/1999/xlink" xml:space="preserve" xmlns:serif="http://www.serif.com/" style="fill-rule:evenodd;clip-rule:evenodd;stroke-linejoin:round;stroke-miterlimit:2;">
    <g transform="matrix(0.75,0,0,0.75,0,0)">
        <g transform="matrix(1,0,0,1,-85.39,4.80077e-06)">
            <path d="M168.77,41.7C168.765,64.567 149.947,83.38 127.08,83.38C104.21,83.38 85.39,64.56 85.39,41.69C85.39,18.823 104.203,0.005 127.07,0C127.077,-0 127.083,-0 127.09,-0C149.955,-0 168.77,18.815 168.77,41.68C168.77,41.687 168.77,41.693 168.77,41.7Z" style="fill:rgb(27,0,0);fill-rule:nonzero;"/>
            <path d="M86.149,40.226L105.42,40.91L105.42,41.69L86.122,41.912C86.121,41.841 86.121,41.771 86.121,41.7C86.122,41.207 86.131,40.715 86.149,40.226ZM86.197,44.174L105.356,43.044C105.381,43.335 105.44,43.657 105.44,43.97L86.351,46.014C86.286,45.405 86.234,44.791 86.197,44.174ZM105.356,43.044C105.353,43.019 105.352,42.994 105.35,42.97L105.42,43.04L105.356,43.044ZM86.624,48.066L105.614,45.126C105.659,45.386 105.707,45.651 105.76,45.92L86.931,49.765C86.817,49.202 86.714,48.636 86.624,48.066ZM105.614,45.126C105.603,45.057 105.591,44.988 105.58,44.92L105.65,45.12L105.614,45.126ZM87.433,51.928L106.06,47.12L106.06,47.15C106.15,47.48 106.24,47.82 106.34,48.15L87.977,53.819C87.781,53.195 87.6,52.564 87.433,51.928ZM88.605,55.664L106.67,49.12L106.67,49.08C106.79,49.44 106.92,49.76 107.05,50.08L89.329,57.495C89.074,56.891 88.832,56.281 88.605,55.664ZM90.127,59.259L107.47,51.02L107.4,50.86C107.55,51.17 107.71,51.48 107.87,51.79L90.942,60.864C90.659,60.336 90.387,59.801 90.127,59.259ZM91.992,62.706L108.457,52.858C108.632,53.148 108.816,53.429 109,53.71L93.005,64.3C92.655,63.777 92.318,63.245 91.992,62.706ZM108.457,52.858C108.451,52.849 108.446,52.839 108.44,52.83L108.47,52.85L108.457,52.858ZM94.178,65.965L109.627,54.582C109.736,54.723 109.848,54.863 109.96,55L95.079,67.135C94.772,66.75 94.472,66.36 94.178,65.965ZM109.627,54.582C109.522,54.445 109.418,54.308 109.32,54.17L109.63,54.58L109.627,54.582ZM96.662,69.002L110.949,56.201C111.173,56.454 111.407,56.707 111.65,56.94L98.003,70.424C97.545,69.96 97.098,69.486 96.662,69.002ZM110.949,56.201C110.942,56.194 110.936,56.187 110.93,56.18L110.95,56.2L110.949,56.201ZM99.416,71.787L112.42,57.69L112.38,57.6C112.63,57.83 112.9,58.07 113.17,58.29L100.847,73.045C100.36,72.637 99.883,72.217 99.416,71.787ZM102.443,74.32L114,59L114.85,59.66L104.027,75.464C103.49,75.095 102.962,74.713 102.443,74.32ZM105.639,76.518L115.72,60.18L115.61,60.1L116.51,60.62L107.223,77.453C106.688,77.153 106.159,76.841 105.639,76.518ZM109.093,78.439L117.54,61.18L117.49,61.13C117.8,61.28 118.12,61.43 118.43,61.56L110.796,79.234C110.222,78.982 109.654,78.717 109.093,78.439ZM112.704,80.014L119.44,62L119.46,62.04L120.46,62.38L114.56,80.668C113.935,80.465 113.316,80.247 112.704,80.014ZM116.42,81.224L121.438,62.638C121.759,62.725 122.08,62.802 122.41,62.87L118.309,81.691C117.674,81.55 117.044,81.394 116.42,81.224ZM121.438,62.638C121.429,62.635 121.419,62.633 121.41,62.63L121.44,62.63L121.438,62.638ZM120.252,82.072L123.44,63.07L123.47,63.07C123.78,63.13 124.12,63.22 124.47,63.22L122.196,82.355C121.543,82.276 120.895,82.182 120.252,82.072ZM124.155,82.544L125.51,63.32L126.6,63.32L126.146,82.638C125.478,82.623 124.814,82.592 124.155,82.544ZM128.123,82.636L127.67,63.37L128.67,63.32L128.72,63.31L130.085,82.538C129.435,82.586 128.781,82.619 128.123,82.636ZM132.023,82.348L129.74,63.22C130.05,63.18 130.4,63.13 130.74,63.07L130.77,63.09L133.963,82.062C133.321,82.173 132.674,82.268 132.023,82.348ZM135.842,81.693L131.74,62.87C132.07,62.8 132.41,62.72 132.74,62.63L132.8,62.68L137.788,81.211C137.145,81.387 136.496,81.548 135.842,81.693ZM139.657,80.649L133.74,62.34L134.74,62L134.77,62.03L141.493,80C140.888,80.231 140.275,80.447 139.657,80.649ZM143.302,79.261L135.7,61.61L136.64,61.17L136.58,61.24L145.012,78.467C144.449,78.744 143.879,79.009 143.302,79.261ZM146.846,77.504L137.56,60.69C137.86,60.53 138.16,60.35 138.46,60.17L138.39,60.3L148.432,76.573C147.91,76.895 147.382,77.206 146.846,77.504ZM150.157,75.448L139.31,59.61C139.6,59.42 139.88,59.21 140.16,59L151.584,74.42C151.116,74.773 150.64,75.115 150.157,75.448ZM153.278,73.075L140.98,58.35C141.24,58.13 141.51,57.9 141.76,57.66L154.481,72.027C154.086,72.384 153.685,72.733 153.278,73.075ZM156.185,70.394L142.51,56.94C142.76,56.69 143,56.43 143.23,56.17L157.424,69.084C157.02,69.53 156.607,69.966 156.185,70.394ZM158.79,67.495L143.91,55.38C144.13,55.11 144.35,54.83 144.55,54.56L159.759,66.262C159.443,66.679 159.12,67.09 158.79,67.495ZM161.119,64.353L145.15,53.7C145.34,53.41 145.53,53.12 145.71,52.82L162.144,62.746C161.815,63.29 161.473,63.825 161.119,64.353ZM163.152,60.985L146.24,51.92C146.397,51.625 146.555,51.32 146.702,51.006L163.989,59.352C163.722,59.903 163.443,60.448 163.152,60.985ZM146.702,51.006L146.69,51L146.71,50.99C146.707,50.995 146.705,51.001 146.702,51.006ZM164.833,57.488L147.13,50.09C147.26,49.73 147.39,49.41 147.51,49.09L147.47,49.24L165.513,55.776C165.299,56.353 165.072,56.923 164.833,57.488ZM166.197,53.773L147.83,48.09C147.9,47.859 147.97,47.623 148.033,47.389L166.656,52.193C166.514,52.724 166.361,53.251 166.197,53.773ZM148.033,47.389L148,47.38L148.11,47.09C148.086,47.189 148.06,47.289 148.033,47.389ZM167.193,49.937L148.35,46.09C148.41,45.77 148.53,45.43 148.53,45.09L148.49,45.05L167.545,48.01C167.443,48.658 167.326,49.3 167.193,49.937ZM167.804,46.06L148.67,44.01C148.747,43.722 148.75,43.389 148.75,43.053L167.963,44.186C167.924,44.815 167.871,45.439 167.804,46.06ZM148.75,43.053L148.7,43.05L148.75,43.01C148.75,43.024 148.75,43.039 148.75,43.053ZM168.036,42.222L148.75,42L148.75,40.9L168.012,40.216C168.03,40.705 168.039,41.197 168.039,41.69C168.039,41.868 168.038,42.045 168.036,42.222ZM167.89,38.202L148.7,39.8C148.67,39.49 148.59,39.14 148.59,38.8L167.679,36.288C167.764,36.921 167.834,37.559 167.89,38.202ZM167.368,34.334L148.43,37.76C148.37,37.44 148.3,37.09 148.22,36.76L166.969,32.431C167.117,33.06 167.25,33.695 167.368,34.334ZM166.473,30.527L147.92,35.77C147.827,35.43 147.727,35.097 147.62,34.77L165.887,28.655C166.097,29.273 166.292,29.897 166.473,30.527ZM165.227,26.855L147.3,33.85C147.17,33.49 147.04,33.17 146.9,32.85L164.445,25.004C164.72,25.613 164.981,26.23 165.227,26.855ZM163.619,23.284L146.49,31.92C146.34,31.61 146.17,31.3 146,31L162.66,21.509C162.993,22.092 163.313,22.684 163.619,23.284ZM161.646,19.833L145.44,30.1C145.25,29.81 145.06,29.52 144.86,29.24L160.555,18.207C160.931,18.74 161.295,19.282 161.646,19.833ZM159.379,16.623L144.24,28.39C144.02,28.11 143.8,27.84 143.58,27.58L158.145,15.115C158.568,15.608 158.979,16.111 159.379,16.623ZM156.831,13.655L142.85,26.82L142.11,26.08L155.446,12.254C155.918,12.71 156.38,13.177 156.831,13.655ZM154.03,10.951L141.36,25.37C141.1,25.14 140.83,24.91 140.56,24.7L152.481,9.655C153.008,10.074 153.524,10.506 154.03,10.951ZM150.95,8.492L139.73,24.07C139.45,23.86 139.16,23.67 138.87,23.48L149.303,7.36C149.862,7.724 150.411,8.102 150.95,8.492ZM147.661,6.342L137.97,22.91C137.67,22.74 137.37,22.57 137.06,22.41L145.93,5.38C146.515,5.687 147.092,6.008 147.661,6.342ZM144.185,4.517L136.14,21.95L135.19,21.54L142.385,3.731C142.992,3.979 143.592,4.241 144.185,4.517ZM140.574,3.043L134.24,21.2L133.24,20.88L138.686,2.427C139.322,2.617 139.951,2.822 140.574,3.043ZM136.818,1.916L132.21,20.61L131.21,20.39L134.86,1.483C135.519,1.611 136.172,1.756 136.818,1.916ZM132.943,1.156L130.17,20.22C129.87,20.17 129.52,20.1 129.17,20.1L130.934,0.913C131.608,0.978 132.278,1.058 132.943,1.156ZM128.964,0.774L128.06,20L126.06,20L125.099,0.782C125.752,0.749 126.409,0.732 127.07,0.731L127.08,0.731C127.711,0.731 128.339,0.746 128.964,0.774ZM123.139,0.928L124.93,20.07C124.62,20.1 124.28,20.19 123.93,20.19L121.2,1.166C121.842,1.071 122.488,0.992 123.139,0.928ZM119.263,1.501L122.9,20.29C122.57,20.35 122.23,20.43 121.9,20.51L117.366,1.923C117.993,1.768 118.626,1.627 119.263,1.501ZM115.451,2.449L120.97,20.88C120.62,20.97 120.29,21.08 119.97,21.19L113.636,3.043C114.235,2.831 114.84,2.633 115.451,2.449ZM111.766,3.755L119,21.58C118.63,21.71 118.32,21.85 118,22L109.963,4.545C110.557,4.267 111.158,4.004 111.766,3.755ZM108.203,5.418L117.07,22.47C116.77,22.63 116.46,22.8 116.17,22.98L106.477,6.381C107.044,6.046 107.62,5.725 108.203,5.418ZM104.827,7.407L115.28,23.46L114.42,24.05L103.216,8.517C103.744,8.135 104.281,7.764 104.827,7.407ZM101.654,9.706L113.59,24.65C113.31,24.87 113.05,25.09 112.78,25.32L100.16,10.957C100.648,10.529 101.146,10.111 101.654,9.706ZM98.712,12.291L112.16,25.93C111.91,26.17 111.66,26.42 111.42,26.67L97.474,13.538C97.878,13.114 98.291,12.698 98.712,12.291ZM96.182,14.959L110.74,27.41C110.52,27.68 110.29,27.95 110.08,28.22L94.934,16.467C95.338,15.955 95.754,15.452 96.182,14.959ZM93.613,18.237L109.33,29.21C109.13,29.49 108.94,29.79 108.75,30.08L92.548,19.822C92.891,19.285 93.246,18.757 93.613,18.237ZM91.526,21.508L108.19,30.96C108.02,31.26 107.85,31.57 107.7,31.88L90.582,23.249C90.883,22.66 91.198,22.08 91.526,21.508ZM89.725,25.031L107.31,32.81C107.17,33.17 107.04,33.49 106.91,33.81L88.967,26.818C89.206,26.215 89.458,25.619 89.725,25.031ZM88.472,28.135L106.68,34.22C106.57,34.56 106.47,34.89 106.37,35.22L87.859,29.996C88.049,29.369 88.253,28.749 88.472,28.135ZM87.197,32.46L105.95,36.79C105.87,37.11 105.8,37.45 105.74,37.79L86.795,34.373C86.914,33.73 87.048,33.092 87.197,32.46ZM86.494,36.248L105.59,38.75C105.54,39.05 105.47,39.4 105.47,39.75L86.28,38.152C86.337,37.513 86.408,36.878 86.494,36.248Z" style="fill:url(#_Radial1);"/>
        </g>
        <g transform="matrix(1,0,0,1,-85.39,4.80077e-06)">
            <path d="M127.07,2C127.073,2 127.077,2 127.08,2C148.853,2 166.77,19.917 166.77,41.69C166.77,63.463 148.853,81.38 127.08,81.38C105.31,81.38 87.395,63.47 87.39,41.7C87.417,19.939 105.309,2.038 127.07,2M127.07,0C104.203,0.005 85.39,18.823 85.39,41.69C85.39,64.56 104.21,83.38 127.08,83.38C149.947,83.38 168.765,64.567 168.77,41.7C168.77,41.697 168.77,41.693 168.77,41.69C168.77,18.82 149.95,-0 127.08,-0C127.077,-0 127.073,-0 127.07,0Z" style="fill:rgb(255,2,2);fill-rule:nonzero;"/>
        </g>
        <g transform="matrix(1,0,0,1,-85.39,4.80077e-06)">
            <g opacity="0.06">
                <path d="M163.09,41.7C163.09,61.449 146.839,77.7 127.09,77.7C107.341,77.7 91.09,61.449 91.09,41.7C91.09,21.951 107.341,5.7 127.09,5.7C146.839,5.7 163.09,21.951 163.09,41.7Z" style="fill:rgb(255,2,2);fill-rule:nonzero;"/>
            </g>
        </g>
        <g transform="matrix(1,0,0,1,-85.39,4.80077e-06)">
            <path d="M127.07,69.83C111.638,69.83 98.94,57.132 98.94,41.7C98.94,26.268 111.638,13.57 127.07,13.57C142.502,13.57 155.2,26.268 155.2,41.7C155.189,57.128 142.498,69.819 127.07,69.83Z" style="fill:rgb(25,0,0);fill-rule:nonzero;"/>
            <path d="M127.07,16.58C127.09,16.58 127.11,16.58 127.13,16.58C140.916,16.58 152.26,27.924 152.26,41.71C152.26,55.496 140.916,66.84 127.13,66.84C113.344,66.84 102,55.496 102,41.71C102,41.707 102,41.703 102,41.7C102.016,27.926 113.346,16.596 127.12,16.58M127.12,10.58C127.103,10.58 127.087,10.58 127.07,10.58C109.993,10.58 95.94,24.633 95.94,41.71C95.94,58.787 109.993,72.84 127.07,72.84C144.147,72.84 158.2,58.787 158.2,41.71C158.2,41.707 158.2,41.7 158.2,41.7C158.2,24.628 144.152,10.58 127.08,10.58C127.077,10.58 127.073,10.58 127.07,10.58L127.12,10.58Z" style="fill:rgb(38,0,0);fill-rule:nonzero;"/>
        </g>
    </g>
    <defs>
        <radialGradient id="_Radial1" cx="0" cy="0" r="1" gradientUnits="userSpaceOnUse" gradientTransform="matrix(38.915,0.0149994,-0.0150066,38.9337,127.085,41.685)"><stop offset="0" style="stop-color:rgb(255,0,0);stop-opacity:0"/><stop offset="0.81" style="stop-color:rgb(255,0,0);stop-opacity:0"/><stop offset="1" style="stop-color:rgb(255,2,2);stop-opacity:1"/></radialGradient>
    </defs>
</svg>
