<?xml version="1.0" encoding="UTF-8" standalone="no"?>
<!DOCTYPE svg PUBLIC "-//W3C//DTD SVG 1.1//EN" "http://www.w3.org/Graphics/SVG/1.1/DTD/svg11.dtd">
<svg width="100%" height="100%" viewBox="0 0 63 63" version="1.1" xmlns="http://www.w3.org/2000/svg" xmlns:xlink="http://www.w3.org/1999/xlink" xml:space="preserve" xmlns:serif="http://www.serif.com/" style="fill-rule:evenodd;clip-rule:evenodd;stroke-linejoin:round;stroke-miterlimit:2;">
    <g transform="matrix(0.75,0,0,0.75,0,0)">
        <g transform="matrix(1,0,0,1,0.01,1.19962e-06)">
            <path d="M83.39,41.7C83.39,64.576 64.566,83.4 41.69,83.4C18.814,83.4 -0.01,64.576 -0.01,41.7C-0.01,18.824 18.814,0 41.69,0C41.693,-0 41.697,-0 41.7,-0C64.57,-0 83.39,18.82 83.39,41.69C83.39,41.693 83.39,41.697 83.39,41.7Z" style="fill:rgb(255,203,203);fill-rule:nonzero;"/>
            <path d="M1.182,40.242L20,40.91L20,42L1.154,41.906C1.154,41.837 1.154,41.769 1.154,41.7C1.154,41.212 1.164,40.726 1.182,40.242ZM1.227,44.13L20,43L20.01,42.95C20.03,43.26 20.09,43.61 20.09,43.95L1.38,45.955C1.315,45.35 1.264,44.742 1.227,44.13ZM1.649,47.99L20.22,45.08C20.266,45.346 20.321,45.623 20.37,45.9L1.951,49.661C1.839,49.108 1.739,48.551 1.649,47.99ZM2.441,51.778L20.64,47.08L20.72,47.12C20.8,47.45 20.9,47.79 21,48.12L2.977,53.652C2.784,53.033 2.605,52.408 2.441,51.778ZM3.605,55.501L21.25,49.08L21.29,49.06C21.4,49.42 21.53,49.74 21.66,50.06L4.322,57.315C4.069,56.717 3.83,56.112 3.605,55.501ZM5.113,59.068L22.031,50.984C22.163,51.253 22.301,51.521 22.44,51.79L5.921,60.659C5.641,60.135 5.371,59.605 5.113,59.068ZM22.031,50.984C22.01,50.943 21.99,50.901 21.97,50.86L22.04,50.98L22.031,50.984ZM6.965,62.491L23.04,52.81L23.03,52.76C23.2,53.06 23.39,53.35 23.58,53.64L7.964,64.063C7.619,63.547 7.286,63.023 6.965,62.491ZM9.129,65.716L24.19,54.54L23.92,54.17C24.13,54.45 24.34,54.73 24.56,55L10.012,66.863C9.711,66.486 9.417,66.104 9.129,65.716ZM11.588,68.722L25.51,56.16L25.54,56.18C25.77,56.44 26.02,56.7 26.26,56.94L12.918,70.132C12.464,69.672 12.02,69.202 11.588,68.722ZM14.316,71.48L27,57.67L27.01,57.67C27.27,57.9 27.53,58.14 27.8,58.36L15.73,72.724C15.249,72.32 14.777,71.905 14.316,71.48ZM17.314,73.988L28.62,59L28.62,59.05C28.89,59.26 29.18,59.46 29.46,59.66L18.881,75.12C18.35,74.755 17.827,74.377 17.314,73.988ZM20.477,76.163L30.34,60.18L30.24,60.1C30.53,60.28 30.83,60.45 31.14,60.62L22.045,77.088C21.515,76.791 20.993,76.483 20.477,76.163ZM23.896,78.064L32.16,61.18L32.16,61.19C32.46,61.34 32.78,61.49 33.1,61.62L25.57,78.845C25.005,78.597 24.447,78.336 23.896,78.064ZM27.424,79.604L34.038,62.059L35.01,62.39L29.257,80.252C28.639,80.05 28.029,79.834 27.424,79.604ZM34.038,62.059L34.01,62.05L34.06,62L34.038,62.059ZM31.14,80.816L36.053,62.655C36.358,62.739 36.679,62.814 37,62.88L33.017,81.279C32.386,81.14 31.76,80.985 31.14,80.816ZM36.053,62.655C36.035,62.65 36.018,62.645 36,62.64L36.06,62.63L36.053,62.655ZM34.925,81.654L38.06,63.07L38.07,63.08C38.38,63.14 38.73,63.23 39.07,63.23L36.847,81.934C36.202,81.856 35.561,81.762 34.925,81.654ZM38.804,82.123L40.13,63.32L41.22,63.32L40.785,82.216C40.121,82.201 39.461,82.17 38.804,82.123ZM42.692,82.214L42.24,63.37L43.29,63.32L44.635,82.119C43.991,82.166 43.343,82.198 42.692,82.214ZM46.602,81.926L44.37,63.22C44.68,63.18 45.03,63.13 45.37,63.07L45.35,63.08L48.519,81.643C47.885,81.752 47.246,81.847 46.602,81.926ZM50.392,81.273L46.37,62.87C46.7,62.8 47.04,62.72 47.37,62.63L47.38,62.81L52.227,80.819C51.621,80.984 51.009,81.136 50.392,81.273ZM54.146,80.244L48.37,62.34L49.335,62.012L55.961,79.602C55.363,79.83 54.758,80.044 54.146,80.244ZM49.335,62.012L49.33,62L49.37,62L49.335,62.012ZM57.743,78.874L50.28,61.61L51.28,61.17L51.24,61.24L59.476,78.067C58.906,78.349 58.328,78.618 57.743,78.874ZM61.267,77.126L52.2,60.69C52.5,60.53 52.8,60.35 53.09,60.17L53.01,60.3L62.834,76.205C62.319,76.523 61.797,76.83 61.267,77.126ZM64.535,75.095L53.93,59.61C54.21,59.42 54.5,59.21 54.77,59L65.943,74.081C65.481,74.429 65.012,74.767 64.535,75.095ZM67.617,72.751L55.59,58.35C55.86,58.13 56.12,57.9 56.38,57.66L68.78,71.739C68.399,72.083 68.011,72.421 67.617,72.751ZM70.471,70.122L57.13,56.94C57.37,56.69 57.62,56.43 57.85,56.17L71.702,68.821C71.301,69.263 70.891,69.697 70.471,70.122ZM73.065,67.237L58.53,55.38C58.75,55.11 58.96,54.83 59.17,54.56L74.028,66.013C73.714,66.428 73.393,66.836 73.065,67.237ZM75.378,64.118L59.77,53.7C59.96,53.41 60.15,53.12 60.32,52.82L76.393,62.527C76.067,63.066 75.728,63.596 75.378,64.118ZM77.39,60.786L60.86,51.92C61.017,51.625 61.175,51.32 61.313,51.006L78.22,59.164C77.955,59.711 77.678,60.252 77.39,60.786ZM61.313,51.006L61.3,51L61.32,50.99C61.318,50.995 61.315,51.001 61.313,51.006ZM79.055,57.321L61.75,50.09C61.879,49.732 61.998,49.414 62.118,49.097L79.729,55.623C79.517,56.195 79.292,56.762 79.055,57.321ZM62.118,49.097L62.1,49.09L62.12,49.09C62.119,49.092 62.118,49.094 62.118,49.097ZM80.403,53.648L62.45,48.09C62.52,47.858 62.586,47.62 62.65,47.385L80.857,52.085C80.716,52.61 80.565,53.131 80.403,53.648ZM62.65,47.385L62.63,47.38L62.73,47.09C62.703,47.188 62.677,47.286 62.65,47.385ZM81.389,49.853L62.96,46.09C63.033,45.764 63.093,45.432 63.14,45.093L81.737,47.946C81.636,48.587 81.52,49.222 81.389,49.853ZM63.14,45.093L63.12,45.09L63.14,45.09C63.14,45.091 63.14,45.092 63.14,45.093ZM81.994,46.006L63.26,44C63.3,43.7 63.35,43.35 63.35,43L82.151,44.149C82.113,44.772 82.061,45.391 81.994,46.006ZM82.223,42.217L63.35,42L63.35,40.89L82.199,40.221C82.217,40.709 82.226,41.198 82.226,41.69C82.226,41.866 82.225,42.042 82.223,42.217ZM82.079,38.247L63.31,39.81C63.28,39.5 63.2,39.15 63.2,38.81L81.868,36.333C81.953,36.966 82.024,37.605 82.079,38.247ZM81.56,34.398L63.03,37.75L62.82,36.75L81.164,32.512C81.311,33.136 81.443,33.764 81.56,34.398ZM80.673,30.63L62.52,35.76C62.427,35.42 62.327,35.087 62.22,34.76L80.092,28.778C80.3,29.389 80.494,30.007 80.673,30.63ZM79.443,27.008L61.91,33.85C61.79,33.49 61.65,33.17 61.51,32.85L78.662,25.162C78.937,25.77 79.198,26.385 79.443,27.008ZM77.843,23.458L61.07,31.92C60.91,31.61 60.75,31.3 60.58,31L76.913,21.736C77.237,22.302 77.547,22.876 77.843,23.458ZM75.904,20.066L60.04,30.11C59.86,29.82 59.66,29.53 59.46,29.25L74.833,18.47C75.202,18.993 75.559,19.525 75.904,20.066ZM73.673,16.904L58.87,28.4C58.657,28.12 58.437,27.85 58.21,27.59L72.452,15.41C72.87,15.898 73.277,16.397 73.673,16.904ZM71.121,13.931L57.48,26.82C57.25,26.57 57,26.32 56.75,26.08L69.788,12.583C70.243,13.022 70.687,13.471 71.121,13.931ZM68.367,11.273L55.98,25.37C55.72,25.14 55.45,24.91 55.17,24.7L66.835,9.99C67.356,10.405 67.867,10.833 68.367,11.273ZM65.295,8.821L54.34,24.07C54.06,23.86 53.77,23.67 53.48,23.48L63.714,7.734C64.25,8.084 64.777,8.447 65.295,8.821ZM62.066,6.712L52.6,22.93L51.69,22.43L60.376,5.772C60.948,6.072 61.511,6.385 62.066,6.712ZM58.626,4.904L50.76,21.97L49.81,21.56L56.837,4.124C57.441,4.37 58.037,4.63 58.626,4.904ZM55.029,3.436L48.86,21.2L47.86,20.88L53.185,2.835C53.806,3.021 54.421,3.221 55.029,3.436ZM51.311,2.323L46.85,20.61L45.85,20.39L49.41,1.902C50.049,2.027 50.683,2.167 51.311,2.323ZM47.493,1.574L44.79,20.22C44.48,20.17 44.13,20.1 43.79,20.1L45.524,1.336C46.185,1.4 46.841,1.479 47.493,1.574ZM43.564,1.197L42.68,20L40.62,20L39.737,1.204C40.384,1.172 41.035,1.155 41.69,1.154C42.318,1.154 42.942,1.168 43.564,1.197ZM37.798,1.347L39.55,20.07C39.24,20.1 38.89,20.19 38.55,20.19L35.88,1.583C36.515,1.49 37.154,1.411 37.798,1.347ZM33.951,1.916L37.47,20.29C37.15,20.35 36.81,20.43 36.47,20.51L32.047,2.341C32.676,2.184 33.311,2.043 33.951,1.916ZM30.191,2.851L35.57,20.88C35.22,20.97 34.89,21.08 34.57,21.19L28.368,3.447C28.969,3.235 29.577,3.036 30.191,2.851ZM26.536,4.146L33.62,21.58C33.25,21.71 32.93,21.85 32.62,22L24.758,4.924C25.343,4.651 25.936,4.392 26.536,4.146ZM23.01,5.792L31.69,22.43C31.38,22.59 31.08,22.76 30.78,22.94L21.301,6.744C21.862,6.414 22.432,6.096 23.01,5.792ZM19.672,7.757L29.87,23.48C29.57,23.67 29.29,23.87 29,24.07L18.074,8.858C18.598,8.479 19.131,8.111 19.672,7.757ZM16.532,10.031L28.2,24.67C27.93,24.89 27.66,25.11 27.4,25.34L15.039,11.282C15.526,10.854 16.024,10.436 16.532,10.031ZM13.614,12.595L26.63,26.08C26.38,26.32 26.13,26.57 25.9,26.82L12.377,13.841C12.781,13.417 13.193,13.002 13.614,12.595ZM10.961,15.408L25.23,27.41C25.003,27.683 24.783,27.953 24.57,28.22L9.832,16.784C10.198,16.317 10.575,15.859 10.961,15.408ZM8.572,18.474L23.95,29.22C23.75,29.5 23.55,29.8 23.37,30.09L7.513,20.05C7.854,19.516 8.207,18.991 8.572,18.474ZM6.485,21.748L22.86,31.01C22.68,31.31 22.52,31.62 22.36,31.93L5.559,23.459C5.854,22.881 6.163,22.31 6.485,21.748ZM4.721,25.201L21.92,32.81C21.78,33.17 21.65,33.49 21.52,33.81L3.971,26.971C4.207,26.374 4.457,25.784 4.721,25.201ZM3.481,28.272L21.28,34.22C21.167,34.553 21.067,34.887 20.98,35.22L2.875,30.113C3.062,29.493 3.265,28.879 3.481,28.272ZM2.22,32.546L20.55,36.79C20.48,37.11 20.41,37.45 20.35,37.79L1.821,34.449C1.939,33.81 2.072,33.175 2.22,32.546ZM1.514,36.367L20.2,38.75C20.16,39.05 20.09,39.4 20.09,39.75L1.311,38.186C1.365,37.576 1.433,36.97 1.514,36.367Z" style="fill:url(#_Radial1);"/>
        </g>
        <g transform="matrix(1,0,0,1,0.01,1.19962e-06)">
            <path d="M41.69,2C63.463,2 81.38,19.917 81.38,41.69C81.38,63.463 63.463,81.38 41.69,81.38C19.92,81.38 2.005,63.47 2,41.7C2.027,19.935 19.925,2.033 41.69,2M41.69,0C18.823,0.005 0.01,18.823 0.01,41.69C0.01,64.56 18.83,83.38 41.7,83.38C64.567,83.38 83.385,64.567 83.39,41.7C83.39,41.697 83.39,41.693 83.39,41.69C83.39,18.82 64.57,-0 41.7,-0C41.697,-0 41.693,-0 41.69,0Z" style="fill:rgb(255,179,179);fill-rule:nonzero;"/>
        </g>
        <g transform="matrix(1,0,0,1,0.01,1.19962e-06)">
            <g opacity="0.06">
                <path d="M77.71,41.7C77.71,61.449 61.459,77.7 41.71,77.7C21.961,77.7 5.71,61.449 5.71,41.7C5.71,21.951 21.961,5.7 41.71,5.7C61.459,5.7 77.71,21.951 77.71,41.7Z" style="fill-rule:nonzero;"/>
            </g>
        </g>
        <g transform="matrix(1,0,0,1,0.01,1.19962e-06)">
            <path d="M41.69,69.83C41.687,69.83 41.683,69.83 41.68,69.83C26.248,69.83 13.55,57.132 13.55,41.7C13.55,26.268 26.248,13.57 41.68,13.57C57.112,13.57 69.81,26.268 69.81,41.7C69.794,57.122 57.112,69.808 41.69,69.83Z" style="fill:rgb(255,102,102);fill-rule:nonzero;"/>
            <path d="M41.69,16.58C55.476,16.58 66.82,27.924 66.82,41.71C66.82,55.496 55.476,66.84 41.69,66.84C27.904,66.84 16.56,55.496 16.56,41.71C16.56,41.707 16.56,41.703 16.56,41.7C16.576,27.922 27.912,16.591 41.69,16.58M41.69,10.58C41.687,10.58 41.683,10.58 41.68,10.58C24.603,10.58 10.55,24.633 10.55,41.71C10.55,58.787 24.603,72.84 41.68,72.84C58.757,72.84 72.81,58.787 72.81,41.71C72.81,41.707 72.81,41.703 72.81,41.7C72.81,24.628 58.762,10.58 41.69,10.58Z" style="fill:rgb(255,203,203);fill-rule:nonzero;"/>
        </g>
    </g>
    <defs>
        <radialGradient id="_Radial1" cx="0" cy="0" r="1" gradientUnits="userSpaceOnUse" gradientTransform="matrix(39.31,0,0,39.3194,41.69,41.685)"><stop offset="0" style="stop-color:rgb(255,0,0);stop-opacity:0"/><stop offset="0.8" style="stop-color:rgb(255,0,0);stop-opacity:0"/><stop offset="1" style="stop-color:rgb(255,2,2);stop-opacity:1"/></radialGradient>
    </defs>
</svg>
