<?xml version="1.0" encoding="UTF-8" standalone="no"?>
<!DOCTYPE svg PUBLIC "-//W3C//DTD SVG 1.1//EN" "http://www.w3.org/Graphics/SVG/1.1/DTD/svg11.dtd">
<svg width="100%" height="100%" viewBox="0 0 89 122" version="1.1" xmlns="http://www.w3.org/2000/svg" xmlns:xlink="http://www.w3.org/1999/xlink" xml:space="preserve" xmlns:serif="http://www.serif.com/" style="fill-rule:evenodd;clip-rule:evenodd;stroke-linejoin:round;stroke-miterlimit:2;">
    <g id="LT_Pressed">
        <path d="M74.75,56.08L74.75,55.41C74.763,55.633 74.763,55.857 74.75,56.08Z" style="fill:rgb(255,203,203);fill-rule:nonzero;"/>
        <path d="M49.72,5.47C50.12,5.15 50.52,4.85 50.93,4.57L53.25,114.57L0,121.79C12.07,5 43,10.76 49.72,5.47Z" style="fill:rgb(255,153,153);fill-rule:nonzero;"/>
        <path d="M76.74,0.14C87.57,0.55 88.81,11.58 88.93,15.33L88.93,16.56C87.166,47.565 87.166,78.645 88.93,109.65C79,111.94 50.39,115 50.39,115C50.39,115 50.39,94.09 49.71,64.4C48.9,26.9 50.93,4.62 50.93,4.62C57.34,0.09 64.49,-0.31 76.74,0.14Z" style="fill:rgb(255,203,203);fill-rule:nonzero;"/>
    </g>
</svg>
